<?xml version="1.0" encoding="utf-8"?>
<!-- Generator: Adobe Illustrator 19.2.1, SVG Export Plug-In . SVG Version: 6.00 Build 0)  -->
<svg version="1.1" id="Layer_1" xmlns="http://www.w3.org/2000/svg" xmlns:xlink="http://www.w3.org/1999/xlink" x="0px" y="0px"
	 viewBox="0 0 386 386" style="enable-background:new 0 0 386 386;" xml:space="preserve">
<style type="text/css">
	.st0{fill:#FFFFFF;}
	.st1{opacity:0.19;fill:#FFFFFF;enable-background:new    ;}
</style>
<path d="M386,30.1v325.8c0,16.6-13.6,30.1-30.1,30.1H30.1C13.6,386,0,372.4,0,355.9V30.1C0,13.6,13.6,0,30.1,0h325.8
	C372.4,0,386,13.6,386,30.1z"/>
<g>
	<circle class="st0" cx="195.7" cy="174.2" r="165.9"/>
	<g>
		<path d="M255.5,345.8c-9.2,3-14.5-1-14.5-10.7v-1.3c0-13.5-0.1-26.9,0.1-40.4c0.2-14.2-1.4-27.8-12.1-39.1
			c8.8-1.8,16.9-3.1,24.8-5.2c40.5-10.6,55.1-38.4,57.5-71.9c0.7-10.1-0.2-20.5-1.7-30.6c-1.5-10-6.5-18.8-13.1-26.6
			c-2.4-2.8-3-5.1-1.9-8.8c3.9-13.5,2.5-26.9-2-40.1c-1.2-3.6-3.8-4-6.5-3.3c-7.5,1.9-15.2,3.6-22.4,6.5
			c-6.8,2.8-12.9,7.1-19.5,10.5c-1.7,0.9-4.1,1.5-5.9,1c-15.1-3.6-30.2-5.3-45.3-5.1c-13.4,0.2-26.8,1.9-40.3,5.2
			c-1.8,0.4-4.3-0.1-5.9-1.1c-10.8-6.6-21.6-13.1-34.1-15.7c-14.9-3.1-13-2.6-16.4,10c-3,11.4-2.8,22.9,0.7,34.3
			c0.4,1.3,0,3.5-0.9,4.6c-15.9,18.4-19.2,40.1-15.9,63.2c1.4,9.9,3.9,20,7.8,29.1c9.6,22.2,28.3,33.7,50.9,39.4
			c6.4,1.6,13.1,2.5,19.6,3.7c1,0.2,1.9,0.5,3.5,0.9c-6.4,6.7-9.6,14.5-11.2,22.9c-0.2,1-1.6,2-2.7,2.4
			c-19.3,7.5-38.5,4.6-50.6-15.3c-6-9.8-14-16.9-25.7-19.1c-0.1,0-0.3-0.1-0.4-0.1c-3.3,0.7-8.4,0.4-9.4,2.3
			c-1.9,3.5,2.6,5.6,5.2,7.2c9.7,6,16,14.7,20.1,24.9c7,17.3,20.7,24.7,38.3,25.7c7.9,0.5,15.8-0.7,24.1-1.1
			c0.1,0.9,0.3,2.2,0.3,3.4c0.1,8.7,0.3,17.4,0.4,26.1c0,0.4,0,0.8,0,1.3c0.1,9.6-5.8,14-14.8,10.7C73.1,322.6,32.1,279.2,17,214.2
			C-4.9,119.6,51.5,27,142.5,0h106.2c61.4,19,111,68.9,126.2,136C394.8,224.4,341.9,317.6,255.5,345.8z"/>
		<path d="M144.8,291.4c-1.7-1.8-2.7-3-3.7-4.1c1.3-1.1,2.6-2.8,4.1-3c1.1-0.2,2.6,1.5,3.9,2.4C147.8,288,146.6,289.4,144.8,291.4z"
			/>
		<path d="M135.5,289.8c-1.5,0.7-3.2,2-4.6,1.8c-1.4-0.2-2.5-2-3.7-3.1c1.5-0.9,2.9-2.3,4.4-2.4c1.3-0.1,2.7,1.3,4,2.1
			C135.5,288.7,135.5,289.3,135.5,289.8z"/>
		<path d="M108.8,279.7c-2.2,1.5-3.7,3-4.2,2.8c-1.7-0.9-3.1-2.4-4.4-3.9c-0.2-0.2,1.8-2.7,2.1-2.6
			C104.2,276.7,105.9,278,108.8,279.7z"/>
		<path d="M115.7,282.5c1.9,1.8,3.3,3.1,4.6,4.4c-1.2,0.9-2.6,2.7-3.6,2.5c-1.6-0.4-2.9-2.1-4.3-3.2
			C113.3,285.1,114.2,284.1,115.7,282.5z"/>
		<path d="M93.7,264c1.8,2.5,3,3.9,3.7,5.6c0.2,0.5-1.4,1.7-2.1,2.5c-1.3-1.3-2.8-2.5-3.7-4.1C91.4,267.5,92.6,266.1,93.7,264z"/>
		<path d="M86.7,254.8c1.5,2.3,2.5,3.7,3.2,5.2c0.1,0.2-2,1.8-2.2,1.6c-1.2-1-2.4-2.2-3.1-3.5C84.3,257.8,85.5,256.6,86.7,254.8z"/>
	</g>
</g>
<path class="st1" d="M386,12v362c0,6.6-5.4,12-12,12H193V0h181C380.6,0,386,5.4,386,12z"/>
</svg>
